<svg width="550" height="550" viewBox="0 0 550 550" fill="none" xmlns="http://www.w3.org/2000/svg">
<circle cx="275" cy="275" r="275" fill="#3A3940"/>
<path d="M392.589 392.183C309.009 473.183 205.159 489.183 167.529 433.433C134.239 384.183 165.719 296.633 233.749 233.313C300.689 171.073 388.969 145.383 436.749 178.313C490.649 215.183 474.729 312.553 392.589 392.183Z" fill="#FEFEFE"/>
<path d="M380.649 379.853C297.069 460.903 193.219 476.853 155.589 421.103C122.299 371.893 153.779 284.333 221.809 221.003C288.749 158.773 377.029 133.083 424.809 166.003C479.069 203.273 462.789 300.613 380.649 379.853Z" fill="#141414"/>
<path d="M345.549 344.753C295.259 392.883 232.299 404.823 206.969 372.613C183.809 342.943 202.269 286.863 246.409 245.613C290.189 204.723 346.999 189.163 376.309 212.323C407.789 236.933 395.129 296.993 345.549 344.753Z" fill="#FEFEFE"/>
<path d="M313.349 312.553C293.449 331.363 268.119 336.793 257.269 324.853C246.769 313.273 253.649 289.753 272.459 272.023C291.269 254.293 315.519 248.503 327.099 259.023C339.039 269.493 333.249 293.733 313.349 312.553Z" fill="#7CFED0"/>
<path d="M184.899 190.973C183.072 192.665 180.929 193.98 178.593 194.842C176.256 195.705 173.773 196.097 171.284 195.996C168.796 195.896 166.352 195.305 164.093 194.258C161.833 193.21 159.803 191.727 158.119 189.893L93.7088 107.753C92.1095 105.684 91.3356 103.095 91.537 100.488C91.7384 97.8807 92.9008 95.4413 94.7988 93.6427C96.7326 91.8943 99.2468 90.9263 101.854 90.9263C104.461 90.9263 106.975 91.8943 108.909 93.6427L185.619 164.183C187.416 165.943 188.831 168.055 189.775 170.387C190.718 172.718 191.17 175.22 191.103 177.735C191.035 180.249 190.449 182.723 189.382 185.001C188.314 187.279 186.788 189.312 184.899 190.973Z" fill="#FEFDFF"/>
<path d="M108.549 123.313L87.9287 126.183C82.1387 126.913 79.9287 134.183 84.3087 137.763C96.9823 148.937 112.521 156.354 129.179 159.183L139.669 160.993C139.942 161.043 140.224 161.013 140.48 160.905C140.736 160.797 140.954 160.616 141.109 160.385C141.263 160.154 141.346 159.883 141.348 159.606C141.35 159.328 141.27 159.056 141.119 158.823L115.059 125.843C114.258 124.928 113.247 124.22 112.114 123.78C110.98 123.339 109.757 123.179 108.549 123.313Z" fill="#7CFED0"/>
<path d="M123.749 109.563L128.439 89.3026C128.712 88.0352 129.346 86.874 130.265 85.9589C131.184 85.0439 132.347 84.4142 133.616 84.1457C134.884 83.8772 136.204 83.9814 137.414 84.4457C138.625 84.9101 139.675 85.7147 140.439 86.7626C150.6 100.216 156.732 116.28 158.119 133.083L158.849 143.573C158.842 143.823 158.768 144.067 158.634 144.278C158.5 144.49 158.31 144.661 158.086 144.773C157.862 144.885 157.612 144.934 157.362 144.914C157.112 144.895 156.873 144.808 156.669 144.663L125.919 116.433C123.749 114.263 123.019 111.733 123.749 109.563Z" fill="#7CFED0"/>
<path d="M181.999 187.723L202.629 209.793" stroke="#FEFDFF" stroke-width="6.51" stroke-linecap="round" stroke-linejoin="round"/>
</svg>
